<mxfile host="app.diagrams.net" modified="2024-06-13T05:53:52.312Z" agent="Mozilla/5.0 (Windows NT 10.0; Win64; x64; rv:127.0) Gecko/20100101 Firefox/127.0" etag="IH-MPJTzeai1dbcjMKWk" version="24.5.4" type="github">
  <diagram name="Page-1" id="zcy8_zAFrj_lsBXq3jjC">
    <mxGraphModel dx="1434" dy="781" grid="0" gridSize="10" guides="1" tooltips="1" connect="1" arrows="1" fold="1" page="1" pageScale="1" pageWidth="850" pageHeight="1100" math="0" shadow="0">
      <root>
        <mxCell id="0" />
        <mxCell id="1" parent="0" />
        <mxCell id="Y-hilgdHN-UzfRF6LN_a-17" value="" style="endArrow=none;dashed=1;html=1;dashPattern=1 3;strokeWidth=2;rounded=0;" parent="1" source="Y-hilgdHN-UzfRF6LN_a-21" edge="1">
          <mxGeometry width="50" height="50" relative="1" as="geometry">
            <mxPoint x="220" y="300" as="sourcePoint" />
            <mxPoint x="85" y="687" as="targetPoint" />
          </mxGeometry>
        </mxCell>
        <mxCell id="Y-hilgdHN-UzfRF6LN_a-18" value="" style="endArrow=none;dashed=1;html=1;dashPattern=1 3;strokeWidth=2;rounded=0;entryX=0.5;entryY=1;entryDx=0;entryDy=0;" parent="1" target="Y-hilgdHN-UzfRF6LN_a-22" edge="1">
          <mxGeometry width="50" height="50" relative="1" as="geometry">
            <mxPoint x="220" y="697" as="sourcePoint" />
            <mxPoint x="270" y="250" as="targetPoint" />
          </mxGeometry>
        </mxCell>
        <mxCell id="Y-hilgdHN-UzfRF6LN_a-19" value="" style="endArrow=none;dashed=1;html=1;dashPattern=1 3;strokeWidth=2;rounded=0;entryX=0.5;entryY=1;entryDx=0;entryDy=0;" parent="1" target="Y-hilgdHN-UzfRF6LN_a-25" edge="1">
          <mxGeometry width="50" height="50" relative="1" as="geometry">
            <mxPoint x="419" y="700" as="sourcePoint" />
            <mxPoint x="270" y="250" as="targetPoint" />
          </mxGeometry>
        </mxCell>
        <mxCell id="Y-hilgdHN-UzfRF6LN_a-20" value="" style="endArrow=none;dashed=1;html=1;dashPattern=1 3;strokeWidth=2;rounded=0;entryX=0.5;entryY=1;entryDx=0;entryDy=0;" parent="1" target="Y-hilgdHN-UzfRF6LN_a-27" edge="1">
          <mxGeometry width="50" height="50" relative="1" as="geometry">
            <mxPoint x="619" y="708" as="sourcePoint" />
            <mxPoint x="270" y="250" as="targetPoint" />
          </mxGeometry>
        </mxCell>
        <mxCell id="Y-hilgdHN-UzfRF6LN_a-21" value="Пользовтель" style="shape=umlActor;verticalLabelPosition=bottom;verticalAlign=top;html=1;outlineConnect=0;align=center;horizontal=1;labelPosition=center;" parent="1" vertex="1">
          <mxGeometry x="70" y="20" width="30" height="60" as="geometry" />
        </mxCell>
        <mxCell id="Y-hilgdHN-UzfRF6LN_a-22" value="i: Интерфейс" style="rounded=0;whiteSpace=wrap;html=1;" parent="1" vertex="1">
          <mxGeometry x="160" y="20" width="120" height="60" as="geometry" />
        </mxCell>
        <mxCell id="Y-hilgdHN-UzfRF6LN_a-23" value="" style="html=1;points=[[0,0,0,0,5],[0,1,0,0,-5],[1,0,0,0,5],[1,1,0,0,-5]];perimeter=orthogonalPerimeter;outlineConnect=0;targetShapes=umlLifeline;portConstraint=eastwest;newEdgeStyle={&quot;curved&quot;:0,&quot;rounded&quot;:0};" parent="1" vertex="1">
          <mxGeometry x="80" y="150" width="10" height="402" as="geometry" />
        </mxCell>
        <mxCell id="Y-hilgdHN-UzfRF6LN_a-24" value="" style="html=1;points=[[0,0,0,0,5],[0,1,0,0,-5],[1,0,0,0,5],[1,1,0,0,-5]];perimeter=orthogonalPerimeter;outlineConnect=0;targetShapes=umlLifeline;portConstraint=eastwest;newEdgeStyle={&quot;curved&quot;:0,&quot;rounded&quot;:0};" parent="1" vertex="1">
          <mxGeometry x="215" y="150" width="10" height="393" as="geometry" />
        </mxCell>
        <mxCell id="Y-hilgdHN-UzfRF6LN_a-25" value="back: Backend API" style="rounded=0;whiteSpace=wrap;html=1;" parent="1" vertex="1">
          <mxGeometry x="360" y="20" width="120" height="60" as="geometry" />
        </mxCell>
        <mxCell id="Y-hilgdHN-UzfRF6LN_a-26" value="" style="html=1;points=[[0,0,0,0,5],[0,1,0,0,-5],[1,0,0,0,5],[1,1,0,0,-5]];perimeter=orthogonalPerimeter;outlineConnect=0;targetShapes=umlLifeline;portConstraint=eastwest;newEdgeStyle={&quot;curved&quot;:0,&quot;rounded&quot;:0};" parent="1" vertex="1">
          <mxGeometry x="415" y="160" width="10" height="375" as="geometry" />
        </mxCell>
        <mxCell id="Y-hilgdHN-UzfRF6LN_a-27" value="db: База данных" style="rounded=0;whiteSpace=wrap;html=1;" parent="1" vertex="1">
          <mxGeometry x="560" y="20" width="120" height="60" as="geometry" />
        </mxCell>
        <mxCell id="Y-hilgdHN-UzfRF6LN_a-28" value="" style="html=1;points=[[0,0,0,0,5],[0,1,0,0,-5],[1,0,0,0,5],[1,1,0,0,-5]];perimeter=orthogonalPerimeter;outlineConnect=0;targetShapes=umlLifeline;portConstraint=eastwest;newEdgeStyle={&quot;curved&quot;:0,&quot;rounded&quot;:0};" parent="1" vertex="1">
          <mxGeometry x="615" y="427" width="10" height="63" as="geometry" />
        </mxCell>
        <mxCell id="Y-hilgdHN-UzfRF6LN_a-31" value="" style="endArrow=classic;html=1;rounded=0;" parent="1" edge="1">
          <mxGeometry width="50" height="50" relative="1" as="geometry">
            <mxPoint x="88" y="176" as="sourcePoint" />
            <mxPoint x="213" y="176" as="targetPoint" />
            <Array as="points">
              <mxPoint x="168" y="176" />
            </Array>
          </mxGeometry>
        </mxCell>
        <mxCell id="Y-hilgdHN-UzfRF6LN_a-32" value="выбратьПитСреду()" style="edgeLabel;html=1;align=center;verticalAlign=middle;resizable=0;points=[];" parent="Y-hilgdHN-UzfRF6LN_a-31" vertex="1" connectable="0">
          <mxGeometry x="-0.1086" relative="1" as="geometry">
            <mxPoint x="7" y="-27" as="offset" />
          </mxGeometry>
        </mxCell>
        <mxCell id="Y-hilgdHN-UzfRF6LN_a-37" value="" style="endArrow=classic;html=1;rounded=0;" parent="1" edge="1">
          <mxGeometry width="50" height="50" relative="1" as="geometry">
            <mxPoint x="92" y="200" as="sourcePoint" />
            <mxPoint x="217" y="200" as="targetPoint" />
          </mxGeometry>
        </mxCell>
        <mxCell id="Y-hilgdHN-UzfRF6LN_a-38" value="вводВысотыРастения()" style="edgeLabel;html=1;align=center;verticalAlign=middle;resizable=0;points=[];" parent="Y-hilgdHN-UzfRF6LN_a-37" vertex="1" connectable="0">
          <mxGeometry x="0.408" y="3" relative="1" as="geometry">
            <mxPoint x="-30" y="-8" as="offset" />
          </mxGeometry>
        </mxCell>
        <mxCell id="Y-hilgdHN-UzfRF6LN_a-39" value="" style="endArrow=classic;html=1;rounded=0;" parent="1" edge="1">
          <mxGeometry width="50" height="50" relative="1" as="geometry">
            <mxPoint x="90" y="242" as="sourcePoint" />
            <mxPoint x="215" y="242" as="targetPoint" />
          </mxGeometry>
        </mxCell>
        <mxCell id="Y-hilgdHN-UzfRF6LN_a-40" value="ввестиСодержХлорофила()" style="edgeLabel;html=1;align=center;verticalAlign=middle;resizable=0;points=[];" parent="Y-hilgdHN-UzfRF6LN_a-39" vertex="1" connectable="0">
          <mxGeometry x="0.408" y="3" relative="1" as="geometry">
            <mxPoint x="-29" y="-15" as="offset" />
          </mxGeometry>
        </mxCell>
        <mxCell id="Y-hilgdHN-UzfRF6LN_a-41" value="" style="endArrow=classic;html=1;rounded=0;" parent="1" edge="1">
          <mxGeometry width="50" height="50" relative="1" as="geometry">
            <mxPoint x="90" y="281" as="sourcePoint" />
            <mxPoint x="215" y="281" as="targetPoint" />
          </mxGeometry>
        </mxCell>
        <mxCell id="Y-hilgdHN-UzfRF6LN_a-42" value="ввестиКолвоНастоящЛистьев()" style="edgeLabel;html=1;align=center;verticalAlign=middle;resizable=0;points=[];" parent="Y-hilgdHN-UzfRF6LN_a-41" vertex="1" connectable="0">
          <mxGeometry x="0.408" y="3" relative="1" as="geometry">
            <mxPoint x="-29" y="-15" as="offset" />
          </mxGeometry>
        </mxCell>
        <mxCell id="Y-hilgdHN-UzfRF6LN_a-43" value="" style="endArrow=classic;html=1;rounded=0;" parent="1" edge="1">
          <mxGeometry width="50" height="50" relative="1" as="geometry">
            <mxPoint x="92" y="322" as="sourcePoint" />
            <mxPoint x="217" y="322" as="targetPoint" />
          </mxGeometry>
        </mxCell>
        <mxCell id="Y-hilgdHN-UzfRF6LN_a-44" value="ввестиКолвоУзлов()" style="edgeLabel;html=1;align=center;verticalAlign=middle;resizable=0;points=[];" parent="Y-hilgdHN-UzfRF6LN_a-43" vertex="1" connectable="0">
          <mxGeometry x="0.408" y="3" relative="1" as="geometry">
            <mxPoint x="-29" y="-15" as="offset" />
          </mxGeometry>
        </mxCell>
        <mxCell id="Y-hilgdHN-UzfRF6LN_a-45" value="" style="endArrow=classic;html=1;rounded=0;" parent="1" edge="1">
          <mxGeometry width="50" height="50" relative="1" as="geometry">
            <mxPoint x="90" y="360" as="sourcePoint" />
            <mxPoint x="215" y="360" as="targetPoint" />
          </mxGeometry>
        </mxCell>
        <mxCell id="Y-hilgdHN-UzfRF6LN_a-46" value="ввестиКолвоБоковыхПобегов()" style="edgeLabel;html=1;align=center;verticalAlign=middle;resizable=0;points=[];" parent="Y-hilgdHN-UzfRF6LN_a-45" vertex="1" connectable="0">
          <mxGeometry x="0.408" y="3" relative="1" as="geometry">
            <mxPoint x="-29" y="-15" as="offset" />
          </mxGeometry>
        </mxCell>
        <mxCell id="Y-hilgdHN-UzfRF6LN_a-47" value="" style="endArrow=classic;html=1;rounded=0;" parent="1" edge="1">
          <mxGeometry width="50" height="50" relative="1" as="geometry">
            <mxPoint x="90" y="404" as="sourcePoint" />
            <mxPoint x="215" y="404" as="targetPoint" />
          </mxGeometry>
        </mxCell>
        <mxCell id="Y-hilgdHN-UzfRF6LN_a-48" value="ввестиКоэфРазмножения()" style="edgeLabel;html=1;align=center;verticalAlign=middle;resizable=0;points=[];" parent="Y-hilgdHN-UzfRF6LN_a-47" vertex="1" connectable="0">
          <mxGeometry x="0.408" y="3" relative="1" as="geometry">
            <mxPoint x="-29" y="-15" as="offset" />
          </mxGeometry>
        </mxCell>
        <mxCell id="Y-hilgdHN-UzfRF6LN_a-49" value="" style="endArrow=classic;html=1;rounded=0;" parent="1" target="Y-hilgdHN-UzfRF6LN_a-26" edge="1">
          <mxGeometry width="50" height="50" relative="1" as="geometry">
            <mxPoint x="225" y="430" as="sourcePoint" />
            <mxPoint x="306" y="430" as="targetPoint" />
          </mxGeometry>
        </mxCell>
        <mxCell id="Y-hilgdHN-UzfRF6LN_a-50" value="запрос(&quot;save_dataset&quot;)" style="edgeLabel;html=1;align=center;verticalAlign=middle;resizable=0;points=[];" parent="Y-hilgdHN-UzfRF6LN_a-49" vertex="1" connectable="0">
          <mxGeometry x="-0.0947" y="4" relative="1" as="geometry">
            <mxPoint as="offset" />
          </mxGeometry>
        </mxCell>
        <mxCell id="Y-hilgdHN-UzfRF6LN_a-51" value="" style="endArrow=classic;html=1;rounded=0;" parent="1" edge="1">
          <mxGeometry width="50" height="50" relative="1" as="geometry">
            <mxPoint x="427" y="440" as="sourcePoint" />
            <mxPoint x="617" y="440" as="targetPoint" />
          </mxGeometry>
        </mxCell>
        <mxCell id="Y-hilgdHN-UzfRF6LN_a-52" value="сохранитьЭксперимент()" style="edgeLabel;html=1;align=center;verticalAlign=middle;resizable=0;points=[];" parent="Y-hilgdHN-UzfRF6LN_a-51" vertex="1" connectable="0">
          <mxGeometry x="-0.3789" y="-1" relative="1" as="geometry">
            <mxPoint x="27" y="-13" as="offset" />
          </mxGeometry>
        </mxCell>
        <mxCell id="Y-hilgdHN-UzfRF6LN_a-54" value="вернутьСохраненныйЭксперимент()" style="html=1;verticalAlign=bottom;endArrow=open;dashed=1;endSize=8;curved=0;rounded=0;" parent="1" edge="1">
          <mxGeometry relative="1" as="geometry">
            <mxPoint x="612" y="479" as="sourcePoint" />
            <mxPoint x="422" y="479" as="targetPoint" />
          </mxGeometry>
        </mxCell>
        <mxCell id="Y-hilgdHN-UzfRF6LN_a-55" value="вернутьСтатусЗапроса()" style="html=1;verticalAlign=bottom;endArrow=open;dashed=1;endSize=8;curved=0;rounded=0;" parent="1" edge="1">
          <mxGeometry relative="1" as="geometry">
            <mxPoint x="415" y="503" as="sourcePoint" />
            <mxPoint x="225" y="503" as="targetPoint" />
          </mxGeometry>
        </mxCell>
        <mxCell id="Y-hilgdHN-UzfRF6LN_a-56" value="уведомить(&quot;success&quot;)" style="html=1;verticalAlign=bottom;endArrow=open;dashed=1;endSize=8;curved=0;rounded=0;exitX=0;exitY=0.964;exitDx=0;exitDy=0;exitPerimeter=0;" parent="1" source="Y-hilgdHN-UzfRF6LN_a-24" target="Y-hilgdHN-UzfRF6LN_a-23" edge="1">
          <mxGeometry relative="1" as="geometry">
            <mxPoint x="195" y="529" as="sourcePoint" />
            <mxPoint x="115" y="529" as="targetPoint" />
          </mxGeometry>
        </mxCell>
      </root>
    </mxGraphModel>
  </diagram>
</mxfile>
